# xmcd
#
# Track frame offsets:
#	150
#	18703
#	32300
#	49404
#	65543
#	81055
#	96610
#	111346
#	128817
#	143404
#	158862
#	180535
#	195182
#	207010
#	223966
#	241107
#
# Disc length: 3422 seconds
#
# Revision: 0
# Processed by: cddbd v1.5.2PL0 Copyright (c) Steve Scherf et al.
# Submitted via: EasyCDDAExtractor 11.9.9.666
#
DISCID=dc0d5c10
DTITLE=Xirú Missioneiro - Beiçudo da Bossoroca
DYEAR=1900
DGENRE=Other
TTITLE0=Assoprando fogo de chão
TTITLE1=Deixa disso
TTITLE2=Beiçudo da Bossoroca
TTITLE3=Xodó da muierada
TTITLE4=Peão posteiro
TTITLE5=Barulho de balaio
TTITLE6=Laocura do Chico
TTITLE7=MP3 gaudério
TTITLE8=Casal de louco
TTITLE9=Vai-te a puta que pariu
TTITLE10=Arrepiando o temporal
TTITLE11=Chapéu de vaca
TTITLE12=Trombone de vara
TTITLE13=Sustentando a espora
TTITLE14=Tranco de borracho
TTITLE15=Fio dental
EXTD=
EXTT0=
EXTT1=
EXTT2=
EXTT3=
EXTT4=
EXTT5=
EXTT6=
EXTT7=
EXTT8=
EXTT9=
EXTT10=
EXTT11=
EXTT12=
EXTT13=
EXTT14=
EXTT15=
PLAYORDER=
